<?xml version="1.0" encoding="UTF-8"?>
<svg xmlns="http://www.w3.org/2000/svg" id="Layer_1" data-name="Layer 1" viewBox="0 0 24 24">
  <path d="m7.535,16.747c.6.571.623,1.521.051,2.12-.294.31-.69.466-1.086.466-.372,0-.744-.138-1.035-.414L1.198,14.854c-.782-.781-1.198-1.785-1.198-2.854s.416-2.072,1.172-2.828l4.293-4.091c.6-.57,1.549-.549,2.121.052.572.6.548,1.549-.051,2.12l-3.409,3.247h11.374c.829,0,1.5.672,1.5,1.5s-.671,1.5-1.5,1.5H4.126l3.409,3.247ZM12.57.014c-.837-.031-1.53.601-1.569,1.428-.039.828.601,1.53,1.428,1.568,4.806.226,8.57,4.174,8.57,8.99s-3.765,8.765-8.57,8.99c-.827.038-1.467.74-1.428,1.568.038.804.701,1.43,1.498,1.43.023,0,.047,0,.071-.002,6.409-.3,11.43-5.565,11.43-11.986S18.979.313,12.57.014Z"/>
</svg>
