
<svg xmlns="http://www.w3.org/2000/svg" version="1.1" xmlns:xlink="http://www.w3.org/1999/xlink" preserveAspectRatio="none" x="0px" y="0px" width="1000px" height="189px" viewBox="0 0 1000 189">
<defs>
<g id="Layer0_0_FILL">
<path fill="#000000" stroke="none" d="
M 361 485.35
Q 362.25 485.65 363.4 484.9 366.6 482.95 370.5 481.5 376.2 479.6 381.95 479.6 390.8 479.6 395.2 483.9 399.6 488.25 399.6 495.95
L 399.6 512.85
Q 398.65 515.6 396.55 518.9 394.55 522.25 390.4 525.9 386.25 529.55 381.75 529.55 375.4 529.55 371.85 526.65 368.3 523.9 368.3 519.1 368.3 514.75 371.3 511.85 373.5 509.65 378.2 509.1 378.8 509.1 378.95 508.5
L 382.9 498.25
Q 383.1 497.85 382.8 497.45 382.5 497.1 382.15 497.1
L 381.35 497.1
Q 370.7 497.1 364.25 500.05 357.95 503.05 355.05 508.15 352.15 513.2 352.15 519.75 352.15 526.2 355.45 531.4 358.7 536.65 364.55 539.55 370.15 542.35 378.4 542.35 383.85 542.5 389.35 538.6 394.9 534.65 398.85 529.15 399.25 528.8 399.8 528.95 400.4 529.15 400.4 529.75
L 400.4 538.4
Q 400.4 539.55 401.25 540.5 402.2 541.35 403.35 541.35
L 413 541.35
Q 414.2 541.35 415.1 540.5 415.95 539.55 415.95 538.4
L 415.95 496.9
Q 415.95 480.55 407.7 472.6 399.45 464.6 384.05 464.6 375.6 464.6 367.9 467 361.5 468.95 356.3 472.5 354.2 474.05 355.35 476.25
L 359.1 483.75
Q 359.65 485.05 361 485.35
M 444.85 448.45
L 441.3 448.45
Q 440.35 448.45 439.65 449.15 439 449.9 439 450.85
L 439 465.75 435.05 465.75
Q 431.9 465.75 429.6 468.05 427.35 470.4 427.35 473.45
L 427.35 477.6
Q 427.35 478.65 428.05 479.3 428.7 480 429.7 480
L 439 480 439 516.6
Q 439 518.6 439.15 520.45 439.4 523.6 440.15 526.25 441.7 531.9 445.25 535.5 451.6 541.95 463.2 541.95 467.5 541.95 471.65 540.8 474.75 539.85 477.3 538 478.85 537.05 478.3 535.2
L 476.95 531.95
Q 476.15 529.35 473.6 528 471 526.55 468.3 527.15 466.85 527.45 465.1 527.45 460.4 527.45 457.8 524.45 455.85 522.15 455.45 518.25 455.3 517.2 455.3 516
L 455.3 480 466.3 480
Q 469.65 480 471.95 477.7 474.15 475.45 474.15 472.1
L 474.15 468.15
Q 474.15 467.2 473.5 466.55 472.8 465.75 471.65 465.75
L 455.3 465.75 455.3 458.95
Q 455.3 454.6 452.25 451.55 449.2 448.45 444.85 448.45
M 539.85 502.4
Q 535.9 500.15 531.35 499.15 527.7 498.1 524.05 497.5 523.3 497.45 523.05 498.15
L 518.9 509.7
Q 518.5 511.1 519.9 511.5 521.95 511.9 523.85 512.2 527.8 513.15 530.05 514.8 532.35 516.45 532.35 519.35 532.35 523.3 529.1 525.55 525.5 527.85 518 527.85 515.25 527.85 512.55 527.5 508.5 526.9 504.65 525.55 499.45 523.95 495.5 521.65 493.55 520.35 492.25 522.6
L 488 532.05
Q 487.35 533.7 489 534.7 493.25 537.6 499.75 539.9 507.9 542.15 517 542.15 526.8 542.15 533.65 539.25 540.5 536.3 544.4 531.1 548.3 526.2 548.3 518.7 548.3 512.5 546 508.6 543.4 504.7 539.85 502.4
M 503.65 467.9
Q 496.8 470.8 493.25 476.05 489.35 481.25 489.35 488.4 489.35 494.95 491.6 499.15 494.2 503.05 497.8 505.35 501.1 507.45 505.45 508.75
L 505.5 508.75
Q 506.15 508.9 506.55 508.25
L 511.35 496.25
Q 511.85 494.8 510.6 494.25 510.5 494.25 510.45 494.2 508.75 493.5 507.55 492.65 505.3 491 505.3 487.75 505.3 484.15 508.9 481.55 512.45 479.3 519.95 479.3 524.65 479.3 529.35 480.5 529.55 480.55 529.75 480.6 533.95 481.55 537.9 483.5 539.85 484.85 540.8 482.85
L 541.45 481.55
Q 543.4 477.35 541.45 472.45 539.2 467.9 534.35 466.6
L 534.3 466.6
Q 526.8 464.95 519.95 464.95 510.5 464.95 503.65 467.9
M 597.55 463.65
Q 586.5 463.65 577.85 468.65 569.25 473.65 564.4 482.4 562 486.7 560.8 491.75 560.2 494.2 559.9 496.85 559.55 499.6 559.55 502.55 559.55 513.8 564.4 522.55 569.25 531.3 577.85 536.35 586.5 541.35 597.55 541.35 607.75 541.35 615.65 536.85 622.15 533.1 625.9 526.55 627.45 523.9 624.65 522.05
L 617.65 517.55
Q 615.05 515.8 613.2 518.3 610.55 521.85 607.15 523.9 602.65 526.4 597.35 526.4 591.4 526.4 586.5 523.5 581.6 520.5 578.85 515.05 576.05 509.65 576.05 502.45 576.05 496.8 577.85 492.2 578.3 491.05 578.85 489.95 580.2 487.4 582.05 485.4 584 483.25 586.5 481.7 591.05 479.05 596.55 478.9 596.95 478.85 597.35 478.85 601.4 478.85 605.05 480.35 606.1 480.75 607.15 481.35 610.55 483.35 613.05 486.9 615.05 489.2 617.65 487.65 622.35 484.5 622.55 478.95 622.75 473.6 618.7 470.3 618.45 470.1 618.2 469.9 616.95 468.95 615.65 468.15 614.7 467.6 613.75 467.15 606.55 463.65 597.55 463.65
M 167.35 503.25
Q 167.35 503.05 167.35 502.85
L 156.55 470.4
Q 154.95 466.05 150.45 466.05
L 141.95 466.05
Q 141 466.05 140.55 466.75 140.05 467.4 140.25 468.15
L 157.75 519.35
Q 158.1 520.5 159.25 520.5 160.5 520.5 160.9 519.35
L 167.35 503.25
M 256.4 468.05
Q 254.95 466.05 252.35 466.05
L 245.8 466.05
Q 244.65 466.05 244.3 467.2
L 226.2 520.5
Q 226.05 520.9 225.55 520.8 225.15 520.7 224.95 520.5
L 209 472.85
Q 207.85 469.7 205.35 467.9 202.8 466.05 199.4 466.05
L 194.15 466.05
Q 192.9 466.05 192.5 467.2
L 166 541.15
Q 165.8 541.75 166.55 541.75
L 179.9 541.75
Q 181.15 541.75 181.55 540.8
L 198.45 492.75
Q 198.65 492 199.5 492 200.4 492 200.75 492.75
L 217.1 540.8
Q 217.5 541.75 218.9 541.75
L 232.25 541.75
Q 233.4 541.75 233.8 540.8
L 257.05 472.5
Q 257.8 470.2 256.4 468.05
M 271.25 433.95
Q 269.65 433.95 269.65 435.5
L 269.65 540.2
Q 269.65 541.75 271.25 541.75
L 284.4 541.75
Q 285.95 541.75 285.95 540.2
L 285.95 503.4
Q 285.95 495.95 288.45 490.85 290.85 485.65 295.3 483.15 299.8 480.55 305.45 480.55 313.55 480.55 317.85 485.55 322.2 490.65 322.2 500.65
L 322.2 540.2
Q 322.2 541.75 323.7 541.75
L 337.15 541.75
Q 338.7 541.75 338.7 540.2
L 338.7 498.25
Q 338.7 486.9 334.75 479.5 330.8 472.1 324.4 468.55 317.85 465 309.4 465 300.2 465 293.05 468.95 288.95 471.35 285.95 474.9
L 285.95 451.05
Q 285.95 444.75 281.55 439.35 277.1 433.95 271.25 433.95
M 704.15 469.3
Q 700.8 466.05 696 466.05
L 694.85 466.05
Q 693.5 466.05 692.35 467.1 691.3 468.15 691.3 469.5
L 691.3 538.2
Q 691.3 539.85 692.35 540.8 693.5 541.75 694.85 541.75
L 704.05 541.75
Q 705.5 541.75 706.55 540.8 707.6 539.85 707.6 538.2
L 707.6 477.6
Q 707.6 472.7 704.15 469.3
M 665.7 467.8
Q 664.25 468.35 663.1 468.95 658.8 471.7 655.05 477
L 655.05 475.45
Q 655.05 472 652.85 469.4 652.55 469.05 652.25 468.75 649.55 466.05 645.8 466.05
L 640.45 466.05
Q 639.5 466.05 639.5 466.8
L 639.5 541
Q 639.5 541.75 640.45 541.75
L 654.85 541.75
Q 655.8 541.75 655.8 541
L 655.8 505.15
Q 655.8 493.35 661.4 487.45 666.85 481.5 676.25 481.5 677.05 481.5 678.1 481.7 678.5 481.7 678.85 481.7 679.85 481.9 679.85 480.95
L 679.85 477
Q 679.85 471.55 675.2 468.45 670.6 465.4 665.7 467.8
M 691.85 435.3
Q 688.95 438.5 688.95 442.8 688.95 447.3 691.85 450.4 694.85 453.35 699.35 453.35 704.05 453.35 707.05 450.3 710 447.15 710 442.6 710 438.1 707.05 435.1 704.05 432.15 699.45 432.15 694.85 432.15 691.85 435.3
M 738.15 467.5
Q 735.45 464.6 731.35 464.6
L 727.95 464.6
Q 727 464.6 726.15 465.4 725.4 466.25 725.4 467.2
L 725.4 565.4
Q 725.4 566.55 726.15 567.2 727 567.9 727.95 567.9
L 739 567.9
Q 740.15 567.9 740.95 567.2 741.7 566.55 741.7 565.4
L 741.7 531.1
Q 744.7 534.85 748.65 537.25 755.55 541.35 764.2 541.35 774.35 541.35 782.45 536.55 790.5 531.75 795.1 523 799.75 514.35 799.75 502.55 799.75 491.05 795.1 482.1 790.5 473.25 782.45 468.45 774.35 463.65 764.2 463.65 755.35 463.65 748.25 467.8 744.1 470.4 740.95 474.3 740.95 470.4 738.15 467.5
M 751.8 481.7
Q 756.5 478.85 762.15 478.85 768.3 478.85 772.95 481.7 777.55 484.7 780.35 489.95 783 495.35 783 502.55 783 509.65 780.35 515.05 777.55 520.5 772.95 523.5 768.3 526.4 762.15 526.4 756.5 526.4 751.8 523.5 747 520.5 744.3 515.05 741.5 509.65 741.5 502.55 741.5 495.35 744.3 489.95 747 484.7 751.8 481.7
M 836.65 465.75
L 836.65 458.95
Q 836.65 454.6 833.6 451.55 830.55 448.45 826.2 448.45
L 822.65 448.45
Q 821.7 448.45 821 449.15 820.35 449.9 820.35 450.85
L 820.35 465.75 816.4 465.75
Q 813.25 465.75 810.95 468.05 808.7 470.4 808.7 473.45
L 808.7 477.6
Q 808.7 478.65 809.4 479.3 810.05 480 811.05 480
L 820.35 480 820.35 516.6
Q 820.35 529.15 826.6 535.5 832.95 541.95 844.55 541.95 848.85 541.95 853 540.8 856.1 539.85 858.65 538 860.2 537.05 859.65 535.2
L 858.3 531.95
Q 857.5 529.35 854.95 528 852.35 526.55 849.65 527.15 848.2 527.45 846.45 527.45 841.75 527.45 839.15 524.45 836.65 521.5 836.65 516
L 836.65 480 847.65 480
Q 851 480 853.3 477.7 855.5 475.45 855.5 472.1
L 855.5 468.15
Q 855.5 467.2 854.85 466.55 854.15 465.75 853 465.75
L 836.65 465.75 Z"/>
</g>
</defs>

<g transform="matrix( 1.3896484375, 0, 0, 1.3896484375, -194.8,-600.35) ">
<use xlink:href="#Layer0_0_FILL"/>
</g>
</svg>
