
<svg xmlns="http://www.w3.org/2000/svg" version="1.1" xmlns:xlink="http://www.w3.org/1999/xlink" preserveAspectRatio="none" x="0px" y="0px" width="1000px" height="1000px" viewBox="0 0 1000 1000">
<defs>
<g id="Layer1_0_FILL">
<path fill="#000000" stroke="none" d="
M 483.35 239.85
L 483.35 239.9
Q 472.9 250.4 467.15 264 461.1 278 461.1 293.4 461.1 303.4 463.75 313.05 466.15 322.3 470.9 330.65 470.25 348.25 460.85 366.7 460.4 367.45 460.6 368.4 460.75 369.25 461.45 369.85 462.1 370.45 463.05 370.5 469.9 370.85 476.5 370
L 476.55 370
Q 489.8 368 502 360.75 509.75 364.7 518.2 366.95 527.4 369.25 536.95 369.25 552.25 369.25 566.5 363.3 580.15 357.5 590.8 347.05 601.45 336.5 607.35 322.95 613.4 308.8 613.4 293.45 613.4 278.5 607.3 264.4 601.35 250.7 590.5 239.9
L 590.5 239.85
Q 579.75 229.1 565.9 223.4
L 565.95 223.4
Q 552.1 217.6 536.95 217.6 521.55 217.6 507.5 223.65 493.8 229.35 483.35 239.85
M 482.05 270.25
L 482.05 270.3
Q 486.55 259.55 494.8 251.3 503.1 243 513.8 238.55
L 513.75 238.55
Q 524.85 233.75 537 233.75 548.9 233.75 559.8 238.3 570.65 242.8 579.1 251.3
L 579.05 251.3
Q 587.65 259.9 592.45 270.65 597.3 281.7 597.3 293.45 597.3 305.6 592.5 316.65 587.8 327.35 579.45 335.7 571.05 343.9 560.25 348.5 549 353.15 536.95 353.15 528.9 353.15 521.15 351.05 513.5 348.9 506.8 345 506.65 344.95 506.55 344.9
L 504.35 343.55 504.35 343.5
Q 504.05 343.35 503.75 343.35 503.45 343.4 503.2 343.6 503.15 343.6 503.15 343.65 493.85 350.8 484.65 353.2 484.05 353.35 483.55 353.1 483 352.8 482.85 352.25 482.65 351.7 482.9 351.15 487.65 340.3 488.05 328.15 488.05 327.8 487.9 327.55
L 487.9 327.5 486.45 325.25 486.45 325.2
Q 481.9 318 479.55 310 479.5 309.8 479.5 309.6 477.3 301.7 477.3 293.4 477.3 281.3 482.05 270.25
M 664.2 379.05
Q 666.85 369.4 666.85 359.4 666.85 344 660.8 330 655.05 316.4 644.6 305.9
L 644.6 305.85
Q 638.1 299.3 630.35 294.65 628.7 293.85 627.8 294.3 626.85 294.75 626.75 296.35
L 626.75 296.55
Q 626.55 302.75 625.5 308.85 625.5 310.75 626.6 311.65
L 626.65 311.7
Q 630.05 314.2 633.15 317.3 641.4 325.55 645.9 336.3
L 645.9 336.25
Q 650.65 347.3 650.65 359.4 650.65 367.7 648.45 375.6 648.45 375.8 648.4 376 646.05 384 641.5 391.2
L 641.5 391.25 640.05 393.5 640.05 393.55
Q 639.9 393.8 639.9 394.15 640.3 406.3 645.05 417.15 645.3 417.7 645.1 418.25 644.95 418.8 644.4 419.1 643.9 419.35 643.3 419.2 634.1 416.8 624.8 409.65 624.8 409.6 624.75 409.6 624.5 409.4 624.2 409.35 623.9 409.35 623.6 409.5
L 623.6 409.55 621.4 410.9
Q 621.3 410.95 621.15 411 614.45 414.9 606.8 417.05 599.05 419.15 591 419.15 578.9 419.15 567.65 414.5 556.85 409.9 548.45 401.7 540.9 394.1 536.35 384.6 535.6 383.25 533.95 382.9 527.35 382.7 521 381.6 519.2 381.4 518.8 382.05 518.35 382.65 518.65 383.95 518.7 384.05 518.75 384.2 519.6 386.6 520.6 388.95 526.5 402.5 537.15 413.05 547.75 423.5 561.4 429.3 575.65 435.25 591 435.25 600.55 435.25 609.75 432.95 618.2 430.7 625.95 426.75 638.15 434 651.4 436
L 651.45 436
Q 658.05 436.85 664.9 436.5 665.85 436.45 666.5 435.85 667.2 435.25 667.35 434.4 667.55 433.45 667.1 432.7 657.7 414.25 657.05 396.65 661.8 388.3 664.2 379.05 Z"/>
</g>
</defs>

<g transform="matrix( 4.566162109375, 0, 0, 4.5661773681640625, -2075.3,-993.6) ">
<use xlink:href="#Layer1_0_FILL"/>
</g>
</svg>
